<?xml version="1.0" encoding="UTF-8"?>
<svg width="360" height="220" viewBox="0 0 360 220" fill="none" xmlns="http://www.w3.org/2000/svg" aria-labelledby="heroTitle heroDesc" role="img">
  <title id="heroTitle">NordBay Hero Illustration</title>
  <desc id="heroDesc">Minimalist illustration showing Danish users exchanging products in a safe, friendly marketplace</desc>
  <rect x="0" y="0" width="360" height="220" rx="24" fill="#F7FAFC"/>
  <ellipse cx="180" cy="180" rx="120" ry="32" fill="#E3ECF7"/>
  <g>
    <!-- User 1 -->
    <circle cx="110" cy="120" r="32" fill="#B3C7E6"/>
    <rect x="98" y="152" width="24" height="36" rx="8" fill="#6A8DBA"/>
    <rect x="110" y="110" width="16" height="12" rx="4" fill="#F7FAFC"/>
    <!-- User 2 -->
    <circle cx="250" cy="120" r="32" fill="#7CA7D9"/>
    <rect x="238" y="152" width="24" height="36" rx="8" fill="#3B5A7A"/>
    <rect x="250" y="110" width="16" height="12" rx="4" fill="#F7FAFC"/>
    <!-- Product exchange -->
    <rect x="160" y="130" width="40" height="24" rx="8" fill="#F7FAFC" stroke="#6A8DBA" stroke-width="2"/>
    <path d="M170 142h20" stroke="#6A8DBA" stroke-width="2" stroke-linecap="round"/>
    <circle cx="180" cy="142" r="4" fill="#7CA7D9"/>
    <circle cx="190" cy="142" r="4" fill="#B3C7E6"/>
    <!-- Trust signals -->
    <rect x="40" y="32" width="32" height="32" rx="8" fill="#E3ECF7"/>
    <rect x="288" y="32" width="32" height="32" rx="8" fill="#E3ECF7"/>
    <rect x="164" y="32" width="32" height="32" rx="8" fill="#E3ECF7"/>
    <!-- Shield icon -->
    <path d="M56 44v8c0 4 4 8 8 8s8-4 8-8v-8l-8-4-8 4z" fill="#6A8DBA"/>
    <!-- Truck icon -->
    <rect x="300" y="44" width="16" height="8" rx="2" fill="#6A8DBA"/>
    <rect x="316" y="48" width="8" height="4" rx="1" fill="#B3C7E6"/>
    <circle cx="304" cy="54" r="2" fill="#7CA7D9"/>
    <circle cx="320" cy="54" r="2" fill="#7CA7D9"/>
    <!-- Chat icon -->
    <rect x="172" y="44" width="16" height="8" rx="2" fill="#6A8DBA"/>
    <rect x="172" y="52" width="8" height="4" rx="1" fill="#B3C7E6"/>
    <rect x="180" y="52" width="8" height="4" rx="1" fill="#B3C7E6"/>
  </g>
</svg>
